<?xml version="1.0"?>

<!DOCTYPE svg PUBLIC '-//W3C//DTD SVG 1.0//EN' 'http://www.w3.org/TR/2001/REC-SVG-20010904/DTD/svg10.dtd'>
<svg fill-opacity="1" xmlns:xlink="http://www.w3.org/1999/xlink" color-rendering="auto" color-interpolation="auto" text-rendering="auto" stroke="black" stroke-linecap="square" stroke-miterlimit="10" shape-rendering="auto" stroke-opacity="1" fill="black" stroke-dasharray="none" font-weight="normal" stroke-width="1" xmlns="http://www.w3.org/2000/svg" font-family="&apos;Dialog&apos;" font-style="normal" stroke-linejoin="miter" font-size="12" stroke-dashoffset="0" image-rendering="auto">
  <!--Unicode Character 'BACK OF ENVELOPE' (U+1F582)-->
  <defs id="genericDefs" />
  <g>
    <g>
      <path d="M301.7812 365.0625 L24.1875 365.0625 L24.1875 156.9375 L301.7812 156.9375 L301.7812 365.0625 ZM294.75 353.25 L294.75 168.75 L202.6406 261 L294.75 353.25 ZM289.9688 163.8281 L36 163.8281 L158.0625 285.8906 Q160.0312 287.8594 162.9844 287.8594 Q165.9375 287.8594 167.9062 285.8906 L289.9688 163.8281 ZM289.8281 358.1719 L197.7188 265.9219 L172.8281 290.6719 Q168.6094 294.8906 162.9844 294.8906 Q157.2188 294.8906 153 290.6719 L128.25 265.9219 L36 358.1719 L289.8281 358.1719 ZM123.3281 261 L31.0781 168.75 L31.0781 353.25 L123.3281 261 Z" stroke="none" />
    </g>
  </g>
</svg>
